<svg version="1.1" id="Layer_1" xmlns="http://www.w3.org/2000/svg" xmlns:xlink="http://www.w3.org/1999/xlink" x="0px" y="0px"
	 width="100%" viewBox="0 0 460 460" enable-background="new 0 0 460 460" xml:space="preserve">
<path fill="#000000" opacity="1.000000" stroke="none" 
	d="
M209.000000,461.000000 
	C139.352127,461.000000 70.204247,461.000000 1.028187,461.000000 
	C1.028187,307.727112 1.028187,154.454239 1.028187,1.090672 
	C154.231186,1.090672 307.462433,1.090672 460.846863,1.090672 
	C460.846863,154.333221 460.846863,307.666595 460.846863,461.000000 
	C377.120941,461.000000 293.310486,461.000000 209.000000,461.000000 
M196.544571,179.949631 
	C195.261581,181.875015 193.871429,183.738266 192.713547,185.736160 
	C186.603195,196.279297 180.470581,206.811142 174.523087,217.446121 
	C172.438934,221.172897 170.352554,225.035675 169.179550,229.099686 
	C167.744034,234.073273 171.940216,242.216553 176.070557,243.957703 
	C182.697540,246.751312 190.463150,244.906494 194.067459,238.998627 
	C201.199921,227.307693 208.019302,215.423630 214.850388,203.551651 
	C219.877502,194.814850 224.686478,185.952820 229.651398,177.179825 
	C233.059357,171.157959 236.809830,165.317245 239.966370,159.169205 
	C243.371506,152.537003 240.775070,145.227325 234.075150,141.138153 
	C228.668030,137.838028 220.557846,139.388229 216.973175,145.187469 
	C210.037872,156.407333 203.595230,167.931732 196.544571,179.949631 
M316.744904,233.036880 
	C318.787262,236.351166 320.312042,240.184509 322.993256,242.858093 
	C327.016968,246.870300 338.286530,245.382950 341.064819,240.838577 
	C346.758972,231.524780 352.333679,222.134995 357.794678,212.682373 
	C365.888184,198.673080 373.881927,184.605545 381.825928,170.510849 
	C384.102692,166.471283 386.082397,162.262970 388.161194,158.113449 
	C391.680328,151.088882 385.763489,141.373459 378.551117,139.891846 
	C371.509064,138.445206 365.271576,142.131516 360.827942,150.614639 
	C357.076996,157.775375 353.334076,164.947861 349.317871,171.960632 
	C339.291748,189.467422 329.047852,206.849747 319.071075,224.384293 
	C317.746521,226.712204 317.466461,229.634415 316.744904,233.036880 
M75.976364,299.475189 
	C80.948700,306.828949 90.913193,307.603760 96.552956,300.131927 
	C102.081032,292.808105 106.438362,284.577881 111.067757,276.605072 
	C115.378220,269.181519 119.279381,261.521454 123.523315,254.057938 
	C130.391479,241.979401 137.556168,230.066620 144.262115,217.900009 
	C147.185455,212.596207 144.297379,204.982346 138.720688,201.386230 
	C134.777374,198.843399 124.432251,199.518387 121.753090,202.886963 
	C119.400505,205.844910 117.532463,209.212448 115.639938,212.507919 
	C107.000252,227.552277 98.406876,242.623352 89.838142,257.708282 
	C84.702911,266.748657 79.548088,275.780365 74.589798,284.917786 
	C72.028244,289.638367 71.745163,294.438263 75.976364,299.475189 
M266.049896,263.656067 
	C267.336792,261.729492 268.743652,259.871399 269.889343,257.864227 
	C274.292297,250.150665 278.642273,242.406357 282.951935,234.640198 
	C286.169586,228.841934 289.519867,223.100540 292.388580,217.130783 
	C294.605103,212.518280 291.330933,203.888718 286.871460,201.256653 
	C282.016327,198.391052 271.937592,199.722855 269.180389,204.215790 
	C263.139038,214.060349 257.624664,224.226517 251.764481,234.184479 
	C243.959625,247.447006 235.973495,260.602997 228.188675,273.877106 
	C225.770920,277.999664 223.575150,282.275970 221.594376,286.626038 
	C218.258118,293.952850 222.680191,300.128815 228.616745,303.804871 
	C234.108002,307.205139 241.592010,305.128906 245.122116,299.356720 
	C252.191589,287.797241 258.902069,276.018188 266.049896,263.656067 
z"/>
<path fill="#C3F44E" opacity="1.000000" stroke="none" 
	d="
M196.746475,179.639771 
	C203.595230,167.931732 210.037872,156.407333 216.973175,145.187469 
	C220.557846,139.388229 228.668030,137.838028 234.075150,141.138153 
	C240.775070,145.227325 243.371506,152.537003 239.966370,159.169205 
	C236.809830,165.317245 233.059357,171.157959 229.651398,177.179825 
	C224.686478,185.952820 219.877502,194.814850 214.850388,203.551651 
	C208.019302,215.423630 201.199921,227.307693 194.067459,238.998627 
	C190.463150,244.906494 182.697540,246.751312 176.070557,243.957703 
	C171.940216,242.216553 167.744034,234.073273 169.179550,229.099686 
	C170.352554,225.035675 172.438934,221.172897 174.523087,217.446121 
	C180.470581,206.811142 186.603195,196.279297 192.713547,185.736160 
	C193.871429,183.738266 195.261581,181.875015 196.746475,179.639771 
z"/>
<path fill="#C3F44E" opacity="1.000000" stroke="none" 
	d="
M316.723785,232.659119 
	C317.466461,229.634415 317.746521,226.712204 319.071075,224.384293 
	C329.047852,206.849747 339.291748,189.467422 349.317871,171.960632 
	C353.334076,164.947861 357.076996,157.775375 360.827942,150.614639 
	C365.271576,142.131516 371.509064,138.445206 378.551117,139.891846 
	C385.763489,141.373459 391.680328,151.088882 388.161194,158.113449 
	C386.082397,162.262970 384.102692,166.471283 381.825928,170.510849 
	C373.881927,184.605545 365.888184,198.673080 357.794678,212.682373 
	C352.333679,222.134995 346.758972,231.524780 341.064819,240.838577 
	C338.286530,245.382950 327.016968,246.870300 322.993256,242.858093 
	C320.312042,240.184509 318.787262,236.351166 316.723785,232.659119 
z"/>
<path fill="#C3F44E" opacity="1.000000" stroke="none" 
	d="
M75.795410,299.140533 
	C71.745163,294.438263 72.028244,289.638367 74.589798,284.917786 
	C79.548088,275.780365 84.702911,266.748657 89.838142,257.708282 
	C98.406876,242.623352 107.000252,227.552277 115.639938,212.507919 
	C117.532463,209.212448 119.400505,205.844910 121.753090,202.886963 
	C124.432251,199.518387 134.777374,198.843399 138.720688,201.386230 
	C144.297379,204.982346 147.185455,212.596207 144.262115,217.900009 
	C137.556168,230.066620 130.391479,241.979401 123.523315,254.057938 
	C119.279381,261.521454 115.378220,269.181519 111.067757,276.605072 
	C106.438362,284.577881 102.081032,292.808105 96.552956,300.131927 
	C90.913193,307.603760 80.948700,306.828949 75.795410,299.140533 
z"/>
<path fill="#C3F44E" opacity="1.000000" stroke="none" 
	d="
M265.905334,263.992920 
	C258.902069,276.018188 252.191589,287.797241 245.122116,299.356720 
	C241.592010,305.128906 234.108002,307.205139 228.616745,303.804871 
	C222.680191,300.128815 218.258118,293.952850 221.594376,286.626038 
	C223.575150,282.275970 225.770920,277.999664 228.188675,273.877106 
	C235.973495,260.602997 243.959625,247.447006 251.764481,234.184479 
	C257.624664,224.226517 263.139038,214.060349 269.180389,204.215790 
	C271.937592,199.722855 282.016327,198.391052 286.871460,201.256653 
	C291.330933,203.888718 294.605103,212.518280 292.388580,217.130783 
	C289.519867,223.100540 286.169586,228.841934 282.951935,234.640198 
	C278.642273,242.406357 274.292297,250.150665 269.889343,257.864227 
	C268.743652,259.871399 267.336792,261.729492 265.905334,263.992920 
z"/>
</svg>