<svg version="1.1" id="Layer_1" xmlns="http://www.w3.org/2000/svg" xmlns:xlink="http://www.w3.org/1999/xlink" x="0px" y="0px"
	 width="100%" viewBox="0 0 150 150" enable-background="new 0 0 150 150" xml:space="preserve">
<path fill="#000000" opacity="1.000000" stroke="none" 
	d="
M80.000000,151.000000 
	C53.355152,151.000000 27.210302,151.000000 1.032727,151.000000 
	C1.032727,101.063530 1.032727,51.127026 1.032727,1.095263 
	C50.894638,1.095263 100.789520,1.095263 150.842194,1.095263 
	C150.842194,50.999607 150.842194,100.999756 150.842194,151.000000 
	C127.460724,151.000000 103.980362,151.000000 80.000000,151.000000 
M103.554810,105.837769 
	C101.567116,102.597717 99.470352,99.418922 97.610352,96.107140 
	C88.929680,80.651009 80.304405,65.163712 71.686333,49.672535 
	C70.376495,47.318081 68.722778,46.138226 66.772614,48.714485 
	C64.087967,52.261017 61.628971,55.994133 59.280567,59.776012 
	C54.857292,66.899277 50.582138,74.114532 46.094940,81.540573 
	C41.141228,76.267296 36.672291,71.414871 32.093304,66.668617 
	C28.956274,63.416992 25.646055,62.213589 21.896297,66.029716 
	C17.490538,70.513443 12.809113,74.730072 8.490205,79.292534 
	C7.493826,80.345100 7.099167,82.329140 7.084046,83.890892 
	C6.972807,95.379662 6.859422,106.873169 7.072082,118.359161 
	C7.367356,134.307327 19.096331,145.520416 34.700603,145.173386 
	C62.496048,144.555237 90.315147,145.031570 118.124237,144.982727 
	C130.844376,144.960373 141.987396,136.848526 142.729965,124.286819 
	C144.082886,101.399399 143.651718,78.405579 143.869827,55.455250 
	C143.879013,54.489262 142.930603,53.514175 142.428299,52.543327 
	C141.390472,53.183346 139.956100,53.579273 139.385208,54.506718 
	C137.212784,58.035923 135.417023,61.794800 133.301437,65.361641 
	C128.580261,73.321503 123.688499,81.180397 118.988068,89.152267 
	C115.706505,94.717773 112.592026,100.383133 109.470940,106.041412 
	C107.771881,109.121681 106.016457,109.412811 103.554810,105.837769 
M129.665161,57.071602 
	C130.781464,55.172523 131.978897,53.315788 132.996948,51.365421 
	C135.024719,47.480625 136.170563,42.769394 139.102310,39.805965 
	C143.827927,35.029289 143.597595,30.066292 142.128189,24.518198 
	C139.496002,14.579807 127.843643,6.830330 118.186584,6.916360 
	C91.189362,7.156867 64.187515,7.135862 37.189877,6.919995 
	C28.721876,6.852287 21.127901,8.144585 14.921024,14.521786 
	C11.449788,18.088278 8.228888,21.904543 8.122019,26.897345 
	C7.817595,41.119644 8.015118,55.352688 8.015118,70.372414 
	C9.413980,69.624939 11.229461,69.076874 12.470140,67.915016 
	C16.667231,63.984577 20.722420,59.895901 24.704428,55.745461 
	C26.555004,53.816605 28.007299,53.454983 30.091505,55.511555 
	C35.181370,60.533924 40.449661,65.375465 46.684414,71.271729 
	C54.065903,58.589836 61.020428,46.641499 68.863747,33.166149 
	C81.549835,55.005833 93.520203,75.613373 105.794479,96.744118 
	C107.909653,94.113319 109.768448,92.347763 110.971809,90.212769 
	C117.088867,79.359833 123.036125,68.411179 129.665161,57.071602 
z"/>
<path fill="#231F20" opacity="1.000000" stroke="none" 
	d="
M103.763367,106.125381 
	C106.016457,109.412811 107.771881,109.121681 109.470940,106.041412 
	C112.592026,100.383133 115.706505,94.717773 118.988068,89.152267 
	C123.688499,81.180397 128.580261,73.321503 133.301437,65.361641 
	C135.417023,61.794800 137.212784,58.035923 139.385208,54.506718 
	C139.956100,53.579273 141.390472,53.183346 142.428299,52.543327 
	C142.930603,53.514175 143.879013,54.489262 143.869827,55.455250 
	C143.651718,78.405579 144.082886,101.399399 142.729965,124.286819 
	C141.987396,136.848526 130.844376,144.960373 118.124237,144.982727 
	C90.315147,145.031570 62.496048,144.555237 34.700603,145.173386 
	C19.096331,145.520416 7.367356,134.307327 7.072082,118.359161 
	C6.859422,106.873169 6.972807,95.379662 7.084046,83.890892 
	C7.099167,82.329140 7.493826,80.345100 8.490205,79.292534 
	C12.809113,74.730072 17.490538,70.513443 21.896297,66.029716 
	C25.646055,62.213589 28.956274,63.416992 32.093304,66.668617 
	C36.672291,71.414871 41.141228,76.267296 46.094940,81.540573 
	C50.582138,74.114532 54.857292,66.899277 59.280567,59.776012 
	C61.628971,55.994133 64.087967,52.261017 66.772614,48.714485 
	C68.722778,46.138226 70.376495,47.318081 71.686333,49.672535 
	C80.304405,65.163712 88.929680,80.651009 97.610352,96.107140 
	C99.470352,99.418922 101.567116,102.597717 103.763367,106.125381 
z"/>
<path fill="#ED1C24" opacity="1.000000" stroke="none" 
	d="
M129.354004,57.283829 
	C123.036125,68.411179 117.088867,79.359833 110.971809,90.212769 
	C109.768448,92.347763 107.909653,94.113319 105.794479,96.744118 
	C93.520203,75.613373 81.549835,55.005833 68.863747,33.166149 
	C61.020428,46.641499 54.065903,58.589836 46.684414,71.271729 
	C40.449661,65.375465 35.181370,60.533924 30.091505,55.511555 
	C28.007299,53.454983 26.555004,53.816605 24.704428,55.745461 
	C20.722420,59.895901 16.667231,63.984577 12.470140,67.915016 
	C11.229461,69.076874 9.413980,69.624939 8.015118,70.372414 
	C8.015118,55.352688 7.817595,41.119644 8.122019,26.897345 
	C8.228888,21.904543 11.449788,18.088278 14.921024,14.521786 
	C21.127901,8.144585 28.721876,6.852287 37.189877,6.919995 
	C64.187515,7.135862 91.189362,7.156867 118.186584,6.916360 
	C127.843643,6.830330 139.496002,14.579807 142.128189,24.518198 
	C143.597595,30.066292 143.827927,35.029289 139.102310,39.805965 
	C136.170563,42.769394 135.024719,47.480625 132.996948,51.365421 
	C131.978897,53.315788 130.781464,55.172523 129.354004,57.283829 
z"/>
</svg>