<?xml version="1.0" encoding="UTF-8"?>
<svg version="1.1" xmlns="http://www.w3.org/2000/svg" width="512" height="512">
<path d="M0 0 C1.14001465 0.00902344 2.2800293 0.01804688 3.45458984 0.02734375 C25.10260716 0.47083706 44.75909543 9.86766266 59.93359375 25.21484375 C77.4122032 45.03457593 81.59976263 67.6525789 80.1875 93.4375 C79.26657019 101.76445005 76.02781306 109.26549709 72.4375 116.75 C72.13908203 117.37213379 71.84066406 117.99426758 71.53320312 118.63525391 C65.34777014 130.63613233 55.00872467 139.90822529 45.57002258 149.32913208 C44.07878882 150.82482359 42.58798468 152.32094354 41.09757107 153.81745231 C37.01786495 157.91128358 32.93197491 161.99889282 28.84498036 166.08544612 C24.43160856 170.5004709 20.02395563 174.92119906 15.61549377 179.34112549 C6.48508876 188.49315353 -2.65180542 197.63867572 -11.79063513 206.7822894 C-12.28670349 207.27861894 -12.78277186 207.77494847 -13.29387259 208.2863183 C-13.79097889 208.78368487 -14.28808518 209.28105144 -14.8002553 209.79348972 C-20.31973034 215.31605247 -25.83749479 220.84032343 -31.35520363 226.36465073 C-48.03106535 243.06015082 -64.70853964 259.75403577 -81.39280987 276.4411335 C-81.92584931 276.97426701 -82.45888876 277.50740051 -83.00808092 278.05668958 C-85.16808572 280.21707285 -87.32809776 282.37744889 -89.48811154 284.53782319 C-91.11373949 286.16372285 -92.73936496 287.789625 -94.36499023 289.41552734 C-94.90216033 289.95278546 -95.43933043 290.49004358 -95.99277841 291.04358225 C-112.87333976 307.92704947 -129.74427291 324.82008765 -146.6081543 341.72021484 C-165.57077545 360.72359199 -184.54192217 379.71840457 -203.52478248 398.70156562 C-205.55012578 400.72700574 -207.57543413 402.75248081 -209.60071754 404.7779808 C-210.09936952 405.27667689 -210.59802149 405.77537298 -211.11178413 406.28918107 C-219.1229012 414.30141622 -227.12585741 422.32175469 -235.12593162 430.3450142 C-243.17012054 438.41208282 -251.22382931 446.46953259 -259.28655209 454.51808538 C-263.65092175 458.87528867 -268.01118666 463.23639798 -272.3605957 467.60853958 C-276.34651721 471.61509353 -280.34392129 475.60981388 -284.35056899 479.59563802 C-285.7936754 481.03525791 -287.23261848 482.47906668 -288.66680225 483.92757572 C-305.18044322 500.59540971 -323.79290094 512.64332892 -347.9909668 512.95654297 C-349.32732128 512.95288988 -350.6636708 512.94649586 -352 512.9375 C-352.68470367 512.93606995 -353.36940735 512.93463989 -354.07485962 512.9331665 C-364.82474848 512.87755957 -373.97335252 511.94661353 -383.8125 507.4375 C-384.88886719 506.97988281 -385.96523438 506.52226562 -387.07421875 506.05078125 C-402.25309721 499.09935008 -414.67568631 486.89599201 -422.8125 472.4375 C-423.27398437 471.63699219 -423.73546875 470.83648437 -424.2109375 470.01171875 C-430.5466825 458.28099089 -432.52585811 446.27242342 -432.375 433.0625 C-432.37040771 432.38429199 -432.36581543 431.70608398 -432.36108398 431.00732422 C-432.26172651 420.32450969 -431.3757484 411.18726976 -426.8125 401.4375 C-426.39436035 400.49680664 -426.39436035 400.49680664 -425.96777344 399.53710938 C-418.71764597 383.43106763 -405.34611666 371.82090625 -393.0308075 359.50190735 C-391.55853643 358.02561204 -390.0864734 356.54910923 -388.61459857 355.07241887 C-384.59835263 351.04431072 -380.57904222 347.019273 -376.55915749 342.99479663 C-372.21308295 338.64272711 -367.86981395 334.28785905 -363.52609253 329.93344116 C-353.05574799 319.4386736 -342.58054583 308.94876277 -332.10444924 298.45973781 C-329.14369469 295.49530572 -326.18310248 292.53071152 -323.22254586 289.56608176 C-304.81549268 271.13377426 -286.40682581 252.70307994 -267.99336529 234.27717304 C-263.73717086 230.0180578 -259.48099987 225.75891914 -255.22485352 221.49975586 C-254.69613705 220.97066849 -254.16742058 220.44158111 -253.62268241 219.89646079 C-236.4708426 202.73245863 -219.32842985 185.55908062 -202.19135587 168.38033669 C-184.54671191 150.69286728 -166.89396512 133.01352777 -149.23050992 115.34484296 C-146.73407851 112.8476712 -144.23773228 110.35041431 -141.7414341 107.85310936 C-141.2502048 107.36168945 -140.75897551 106.87026954 -140.25286047 106.36395812 C-132.36554324 98.47313496 -124.48663569 90.57396669 -116.61080352 82.67168214 C-108.69122948 74.72591083 -100.76221289 66.78965508 -92.82425865 58.86223856 C-88.52858527 54.57174485 -84.2370222 50.27734535 -79.95635796 45.97187233 C-76.03220094 42.02516326 -72.09652003 38.09032884 -68.15162907 34.16434731 C-66.73214258 32.74765224 -65.31681053 31.32677864 -63.90627047 29.90117577 C-46.06098008 11.87713881 -26.132727 -0.24936552 0 0 Z " fill="#000000" transform="translate(431.8125,-0.4375)"/>
<path d="M0 0 C5.64001463 3.76697273 10.37077848 8.33996925 15.1640625 13.11328125 C16.0715625 14.00660156 16.9790625 14.89992188 17.9140625 15.8203125 C20.01328073 17.90313059 22.09669173 19.99892478 24.1640625 22.11328125 C18.72065394 28.73316047 12.68465269 34.72959922 6.62283325 40.77476501 C5.44187347 41.95616127 4.26113362 43.13777743 3.08059394 44.31959349 C-0.15305692 47.55547435 -3.38980739 50.78823898 -6.6270833 54.02049267 C-10.12166629 57.51074986 -13.61335131 61.00390411 -17.10539246 64.4967041 C-23.15234647 70.544182 -29.20112605 76.58982892 -35.25115585 82.63422966 C-43.9984393 91.37337977 -52.74295416 100.11529587 -61.48679973 108.85788555 C-75.67381425 123.04271244 -89.86305966 137.22530557 -104.05371094 151.40649414 C-117.83711024 165.18071187 -131.61945697 178.95598141 -145.40039062 192.73266602 C-146.67496672 194.00684803 -146.67496672 194.00684803 -147.97529183 195.30677109 C-152.23814554 199.56831975 -156.50097858 203.82988908 -160.76380134 208.09146869 C-196.1179756 243.43527933 -231.47577173 278.77546497 -266.8359375 314.11328125 C-267.94449343 313.16656709 -269.05255013 312.21926835 -270.16040039 311.27172852 C-270.77750381 310.74426529 -271.39460724 310.21680206 -272.03041077 309.6733551 C-285.60604487 297.94326471 -297.63119327 282.31833744 -299.01293945 263.73242188 C-299.46723347 245.47378419 -297.77531057 229.43716863 -284.72213936 215.36189747 C-283.13006878 213.73883885 -281.52454034 212.12890567 -279.9079895 210.53022766 C-278.57578631 209.18314949 -278.57578631 209.18314949 -277.21666992 207.80885762 C-274.77526073 205.34098435 -272.31872883 202.88868796 -269.85917377 200.43891704 C-267.19967562 197.78458798 -264.55463167 195.11591668 -261.90757751 192.44918823 C-256.72818086 187.23609595 -251.53523954 182.03670618 -246.33690532 176.84250418 C-242.10796337 172.61666128 -237.88339031 168.38649791 -233.6618309 164.15328026 C-232.44252578 162.930671 -231.22322038 161.70806202 -230.00391471 160.48545331 C-229.09338271 159.57245113 -229.09338271 159.57245113 -228.16445611 158.64100447 C-216.70009532 147.14690688 -205.21933307 135.66930087 -193.73363172 124.19653424 C-183.24813916 113.72177926 -172.78420366 103.22578701 -162.33018483 92.71962867 C-151.57387918 81.91009507 -140.80268343 71.11560372 -130.01554859 60.3368327 C-123.96851358 54.29394161 -117.92747186 48.24534358 -111.90213394 42.18081093 C-106.77130043 37.0169038 -101.62650525 31.86740874 -96.46369608 26.73546282 C-93.83484184 24.12156255 -91.21257359 21.50190787 -88.60769081 18.8640995 C-63.38388087 -6.65666406 -33.83559545 -19.22289912 0 0 Z " fill="#000000" transform="translate(298.8359375,8.88671875)"/>
<path d="M0 0 C1.10855593 0.94671416 2.21661263 1.8940129 3.32446289 2.84155273 C3.94156631 3.36901596 4.55866974 3.89647919 5.19447327 4.43992615 C18.77010737 16.17001654 30.79525577 31.79494381 32.17700195 50.38085938 C32.63129597 68.63949706 30.93937307 84.67611262 17.88620186 98.75138378 C16.29413128 100.3744424 14.68860284 101.98437558 13.072052 103.58305359 C11.73984881 104.93013176 11.73984881 104.93013176 10.38073242 106.30442363 C7.93932323 108.7722969 5.48279133 111.22459329 3.02323627 113.67436421 C0.36373812 116.32869327 -2.28130583 118.99736457 -4.92835999 121.66409302 C-10.10775664 126.8771853 -15.30069796 132.07657507 -20.49903218 137.27077707 C-24.72797413 141.49661997 -28.95254719 145.72678334 -33.1741066 149.96000099 C-34.39341172 151.18261025 -35.61271712 152.40521923 -36.83202279 153.62782794 C-37.74255479 154.54083012 -37.74255479 154.54083012 -38.67148139 155.47227678 C-50.13584218 166.96637437 -61.61660443 178.44398038 -73.10230578 189.91674701 C-83.58779834 200.39150199 -94.05173384 210.88749424 -104.50575267 221.39365258 C-115.26205832 232.20318618 -126.03325407 242.99767753 -136.82038891 253.77644855 C-142.86742392 259.81933964 -148.90846564 265.86793767 -154.93380356 271.93247032 C-160.06463707 277.09637745 -165.20943225 282.24587251 -170.37224142 287.37781843 C-173.00109566 289.9917187 -175.62336391 292.61137338 -178.22824669 295.24918175 C-192.91060148 310.10438823 -206.77884725 323.01597893 -228.81445312 323.38085938 C-250.0232596 323.33664366 -265.84387312 317.08207414 -281 302 C-281.93585938 301.07832031 -282.87171875 300.15664063 -283.8359375 299.20703125 C-286.23996999 296.81983372 -288.62722585 294.41821025 -291 292 C-285.55659144 285.38012078 -279.52059019 279.38368203 -273.45877075 273.33851624 C-272.27781097 272.15711998 -271.09707112 270.97550382 -269.91653144 269.79368776 C-266.68288058 266.5578069 -263.44613011 263.32504227 -260.2088542 260.09278858 C-256.71427121 256.60253139 -253.22258619 253.10937714 -249.73054504 249.61657715 C-243.68359103 243.56909925 -237.63481145 237.52345233 -231.58478165 231.47905159 C-222.8374982 222.73990148 -214.09298334 213.99798538 -205.34913777 205.2553957 C-191.16212325 191.07056881 -176.97287784 176.88797568 -162.78222656 162.70678711 C-148.99882726 148.93256938 -135.21648053 135.15729984 -121.43554688 121.38061523 C-120.58582948 120.53116056 -119.73611208 119.68170588 -118.86064567 118.80651016 C-114.59779196 114.5449615 -110.33495892 110.28339217 -106.07213616 106.02181256 C-70.7179619 70.67800192 -35.36016577 35.33781628 0 0 Z " fill="#000000" transform="translate(480,189)"/>
</svg>
