<svg version="1.1" id="Layer_1" xmlns="http://www.w3.org/2000/svg" xmlns:xlink="http://www.w3.org/1999/xlink" x="0px" y="0px"
	 width="100%" viewBox="0 0 1200 1068" enable-background="new 0 0 1200 1068" xml:space="preserve">
<path fill="#61DAFB" opacity="1.000000" stroke="none" 
	d="
M869.000000,1069.000000 
	C849.645752,1069.000000 830.291565,1069.000000 810.803284,1068.677490 
	C810.177368,1067.925781 809.749878,1067.253052 809.184204,1067.103760 
	C798.750793,1064.350586 788.119934,1062.208740 777.892761,1058.839355 
	C758.020020,1052.292236 739.009705,1043.429688 721.310242,1032.419800 
	C702.232422,1020.552429 683.802429,1007.544861 665.784851,994.103027 
	C651.380066,983.356262 637.922791,971.323608 624.228210,959.646851 
	C616.356750,952.935181 608.850220,945.795532 601.184814,938.853455 
	C598.656860,940.830200 596.257629,942.513245 594.076660,944.443054 
	C579.065491,957.725891 564.474487,971.515625 549.007019,984.241272 
	C535.365356,995.464844 520.973572,1005.819153 506.530884,1016.016174 
	C486.929443,1029.855591 465.984253,1041.392578 443.986420,1051.052734 
	C427.824097,1058.150269 411.316925,1063.998291 393.886078,1067.074463 
	C393.166534,1067.201416 392.624664,1068.335327 392.000000,1069.000000 
	C372.645782,1069.000000 353.291534,1069.000000 333.790741,1068.685303 
	C333.160187,1067.936646 332.748535,1067.315796 332.181519,1067.096436 
	C322.154877,1063.218384 311.820526,1059.998657 302.135284,1055.407471 
	C287.483063,1048.461914 275.944611,1037.291260 266.313843,1024.515869 
	C251.814316,1005.281860 243.359909,983.325806 237.725952,959.897705 
	C232.673660,938.888123 231.582947,917.590759 230.127197,896.274658 
	C229.647095,889.244385 230.514908,882.100830 231.029617,875.028198 
	C232.268738,858.001709 233.304230,840.948303 235.108307,823.978821 
	C236.568802,810.241211 238.574112,796.522888 241.166534,782.954407 
	C244.152893,767.324219 248.049942,751.868042 251.518295,736.483582 
	C245.378784,734.627075 239.371857,732.790222 233.352814,730.994019 
	C204.118118,722.269531 175.510239,711.752686 147.898148,698.847534 
	C117.003105,684.408020 87.218994,668.024597 60.998741,645.710083 
	C47.932133,634.589844 36.003906,622.562866 26.013031,608.687317 
	C14.756489,593.053955 6.049731,576.187683 2.864647,556.887939 
	C2.800611,556.499939 1.645882,556.291992 1.000001,556.000000 
	C1.000000,542.312439 1.000000,528.624878 1.320019,514.802979 
	C2.083849,514.012939 2.839307,513.395264 2.924971,512.695679 
	C4.319845,501.303497 8.204790,490.527130 13.889626,480.877045 
	C21.259733,468.366211 29.428328,456.104401 38.803692,445.050446 
	C51.457165,430.131470 66.979294,418.089630 83.100182,406.978607 
	C104.071495,392.524536 126.211006,380.014465 149.670120,370.208221 
	C173.737579,360.147675 198.264587,351.167114 222.724670,342.074921 
	C232.178574,338.560730 242.001205,336.038574 251.716904,333.045624 
	C251.208710,331.094574 250.719528,329.447510 250.353088,327.773621 
	C246.892929,311.966827 243.020035,296.234100 240.136719,280.322235 
	C237.524948,265.908813 235.448715,251.348480 234.126816,236.763168 
	C232.271042,216.287201 231.220779,195.734329 230.086166,175.199951 
	C229.834229,170.640610 230.576477,166.012634 231.017181,161.431290 
	C232.317963,147.908340 232.856018,134.242462 235.241211,120.909561 
	C238.880112,100.568481 244.825409,80.815720 255.044144,62.598640 
	C261.926208,50.329849 270.239014,39.314732 280.638489,29.686113 
	C295.047516,16.345139 311.586487,7.432487 330.617279,2.915013 
	C331.197052,2.777391 331.544342,1.660395 332.000000,1.000001 
	C352.354218,1.000000 372.708466,1.000000 393.196960,1.319988 
	C393.986877,2.083794 394.593994,2.807565 395.305115,2.930635 
	C414.851929,6.313489 433.197998,13.349833 451.075500,21.617788 
	C476.845642,33.535934 501.117676,48.209217 523.552856,65.469170 
	C545.025574,81.988693 565.286621,100.086449 586.013916,117.569199 
	C591.149597,121.900986 596.028381,126.537331 600.972839,130.986511 
	C609.983337,122.829567 618.786072,114.632927 627.839111,106.722900 
	C639.185608,96.809074 650.338379,86.608398 662.291687,77.469162 
	C681.571106,62.728477 701.354248,48.699261 722.546448,36.660503 
	C749.093994,21.579523 776.404785,8.733552 806.615356,2.908286 
	C807.178589,2.799677 807.542847,1.659078 808.000000,0.999995 
	C828.354248,1.000000 848.708435,1.000000 869.198486,1.311874 
	C872.329468,2.647500 875.313660,3.704971 878.321716,4.689478 
	C897.973816,11.121667 914.761536,21.752882 928.839844,37.120480 
	C940.233459,49.557392 948.476135,63.781971 954.856018,79.076157 
	C964.753052,102.801987 968.954773,127.964737 970.826599,153.422638 
	C971.802673,166.697479 970.926697,180.103561 971.019531,193.449448 
	C971.159302,213.540649 969.073730,233.441528 965.972900,253.247437 
	C963.940308,266.229462 961.861938,279.213379 959.361694,292.110687 
	C956.704529,305.817963 953.524963,319.423950 950.539795,333.230103 
	C957.854919,335.408661 965.213318,337.224243 972.304871,339.780365 
	C996.554504,348.520996 1020.990356,356.842285 1044.805908,366.656555 
	C1061.361206,373.478912 1077.557617,381.582001 1092.921753,390.772461 
	C1109.005249,400.393219 1124.054688,411.787048 1139.273682,422.796173 
	C1153.641724,433.189728 1165.434448,446.288208 1175.802124,460.560638 
	C1187.280762,476.362396 1196.086670,493.488800 1199.136108,513.114380 
	C1199.195557,513.496826 1200.354248,513.708618 1201.000000,514.000000 
	C1201.000000,527.687561 1201.000000,541.375122 1200.680542,555.196045 
	C1199.909424,556.150757 1199.264404,556.922363 1199.038452,557.801697 
	C1197.834351,562.489502 1197.200562,567.377808 1195.522583,571.881104 
	C1185.974976,597.502869 1170.453003,618.941833 1150.298218,637.400513 
	C1136.168335,650.341248 1120.927734,661.591553 1104.774536,671.774841 
	C1080.778687,686.902283 1055.367676,699.356934 1029.094482,709.730713 
	C1003.315369,719.909424 976.811401,728.252319 950.771851,737.349731 
	C950.831482,738.170349 950.714661,739.686890 951.076233,741.079163 
	C958.953491,771.411804 965.232117,802.050659 967.946289,833.307800 
	C969.609009,852.457092 970.840515,871.649231 971.899292,890.842285 
	C972.223633,896.723145 971.393616,902.675110 970.985962,908.587097 
	C970.364624,917.598877 970.144165,926.674683 968.870178,935.597229 
	C966.472656,952.388672 962.921753,968.954590 956.990112,984.933350 
	C950.734924,1001.783813 942.356201,1017.462708 930.447632,1030.955200 
	C914.416321,1049.118896 894.641235,1061.406494 870.916260,1067.064209 
	C870.166260,1067.243042 869.633850,1068.334106 869.000000,1069.000000 
M421.052917,354.007446 
	C406.874237,355.999756 392.644501,357.687866 378.529053,360.056946 
	C358.312683,363.449921 338.179749,367.340240 317.904968,371.037567 
	C328.933655,405.345978 340.843048,438.597595 355.263672,471.850891 
	C359.522430,463.920624 363.201569,456.925232 367.013123,450.002716 
	C374.647034,436.137970 382.084717,422.155396 390.095947,408.510651 
	C400.720734,390.414520 411.816864,372.595123 423.153717,354.268097 
	C423.313660,353.927582 423.473572,353.587097 423.633514,353.246582 
	C423.070343,353.476898 422.507141,353.707214 421.052917,354.007446 
M709.755310,722.743347 
	C710.446472,722.023743 711.281433,721.395874 711.807556,720.570984 
	C721.628845,705.175293 731.749695,689.957642 741.131287,674.297363 
	C757.403015,647.135559 773.566833,619.896179 789.088135,592.302490 
	C799.010803,574.661987 807.794312,556.374329 816.794006,538.230652 
	C817.734009,536.335510 817.367554,533.127502 816.421204,531.075684 
	C812.166077,521.849731 807.591980,512.764893 802.928528,503.734741 
	C795.574524,489.494659 788.410706,475.138855 780.521790,461.196777 
	C769.785461,442.222382 758.766113,423.390381 747.270264,404.868317 
	C735.345947,385.655731 722.723206,366.876099 710.335815,347.953003 
	C709.759888,347.073303 708.555115,346.205841 707.548401,346.077637 
	C703.482239,345.559845 699.383484,345.256683 695.288452,345.015381 
	C683.277466,344.307556 671.268616,343.504578 659.247314,343.043701 
	C645.666382,342.523010 632.071838,342.030518 618.484863,342.070953 
	C598.065186,342.131744 577.645874,342.615356 557.228699,343.032928 
	C551.467346,343.150757 545.716248,343.710388 539.956665,343.989197 
	C525.616638,344.683380 511.278625,345.481506 496.929871,345.882996 
	C493.797272,345.970673 491.821472,346.772705 490.185822,349.341339 
	C480.721802,364.203430 470.829346,378.804932 461.744904,393.893768 
	C445.825775,420.334808 429.978546,446.835999 414.885651,473.751892 
	C404.372681,492.500122 395.075531,511.936279 385.520477,531.206543 
	C384.496979,533.270691 384.490234,536.729675 385.521729,538.783081 
	C394.967773,557.587830 404.502472,576.357178 414.498627,594.873840 
	C424.786224,613.930420 435.098846,633.008972 446.344666,651.503845 
	C460.386230,674.596558 475.361969,697.122314 490.053497,719.815796 
	C490.988831,721.260559 492.838715,722.748413 494.454895,723.003967 
	C500.405701,723.945007 506.423859,724.625244 512.441101,724.948669 
	C527.611694,725.764282 542.795166,726.879822 557.974060,726.888794 
	C592.222534,726.909119 626.471985,726.385559 660.719604,725.967346 
	C670.644836,725.846191 680.574585,725.497192 690.484436,724.937744 
	C696.665100,724.588745 702.812500,723.650024 709.755310,722.743347 
M439.651520,771.999512 
	C434.473236,771.333252 429.299438,770.629578 424.115662,770.009094 
	C415.355347,768.960510 406.554291,768.194702 397.833160,766.890137 
	C386.109802,765.136414 374.428284,763.082336 362.761169,760.978027 
	C347.441040,758.214783 332.149750,755.290894 316.851746,752.406006 
	C312.308655,751.549255 307.784698,750.590820 303.689178,749.766907 
	C302.904297,751.703491 302.293304,752.717163 302.080750,753.808472 
	C298.023529,774.638245 293.612732,795.410339 290.123596,816.335876 
	C287.469788,832.251709 285.038666,848.318542 284.263977,864.402710 
	C283.435486,881.604370 284.140900,898.936829 285.182129,916.151428 
	C285.866882,927.471680 287.604736,938.852051 290.156982,949.908630 
	C294.881256,970.374512 302.968414,989.251038 319.699249,1003.230042 
	C329.339386,1011.284424 340.572968,1015.803711 352.854126,1016.856262 
	C368.488098,1018.196106 383.804626,1015.780334 398.856323,1011.115051 
	C424.731842,1003.094543 448.243195,990.384460 470.772827,975.682556 
	C491.805237,961.957520 511.792206,946.836670 530.494629,930.040344 
	C541.398315,920.247925 552.403870,910.568970 563.518921,900.700989 
	C562.341919,898.830078 561.651917,897.344788 560.621460,896.154297 
	C547.314636,880.782104 533.786743,865.597534 520.672180,850.063721 
	C510.573792,838.102478 500.717743,825.914978 491.235474,813.461365 
	C481.810913,801.083557 472.999908,788.239014 463.868500,775.636353 
	C463.352142,774.923645 462.412109,774.166687 461.597595,774.076355 
	C454.599609,773.299805 447.585083,772.672119 439.651520,771.999512 
M899.445068,982.000488 
	C899.981262,981.200073 900.602661,980.443542 901.041199,979.592773 
	C912.427917,957.507507 916.667053,933.578064 917.789124,909.177734 
	C918.557129,892.475403 917.620361,875.669067 916.899841,858.932739 
	C916.414246,847.654236 915.413391,836.355774 913.851746,825.176758 
	C912.012878,812.013916 909.554626,798.923096 906.926697,785.889404 
	C904.508545,773.896484 901.509033,762.020813 898.748352,750.018494 
	C897.365173,750.018494 896.346680,749.858643 895.394470,750.042175 
	C878.212646,753.353455 861.077393,756.922302 843.852783,759.990662 
	C825.628784,763.237122 807.369934,766.368713 789.035645,768.891174 
	C773.167297,771.074219 757.167480,772.294128 741.241882,774.082458 
	C740.071716,774.213806 738.722778,775.274292 737.979980,776.286499 
	C732.612366,783.601685 727.620117,791.202759 722.056458,798.361633 
	C708.365723,815.977783 694.688904,833.616394 680.518250,850.844360 
	C668.121887,865.915222 655.049438,880.429443 642.308533,895.217957 
	C640.982239,896.757446 639.878784,898.488770 638.146423,900.846191 
	C653.690247,914.267578 668.632141,927.601685 684.058105,940.349976 
	C696.073120,950.279541 708.357117,959.955994 721.114624,968.898865 
	C743.130676,984.331787 766.316772,997.802917 791.643372,1007.226990 
	C812.056763,1014.822815 832.963135,1019.867554 854.823486,1015.880432 
	C874.873596,1012.223572 889.569702,1000.734375 899.445068,982.000488 
M684.665894,128.053864 
	C669.174133,141.779434 653.682373,155.505005 638.063049,169.343643 
	C645.321960,177.410904 651.920837,184.307053 658.024475,191.616760 
	C671.826660,208.146179 685.667297,224.657593 698.960938,241.593399 
	C711.992981,258.195984 724.299500,275.366608 737.127197,292.132782 
	C738.516663,293.948853 741.142944,295.556610 743.381531,295.851990 
	C751.335022,296.901459 759.402893,297.070984 767.365051,298.070618 
	C781.578064,299.854950 795.755615,301.933563 809.929626,304.013702 
	C825.360840,306.278320 840.830566,308.355804 856.173218,311.125641 
	C870.310059,313.677795 884.300537,317.040192 899.103149,320.205566 
	C903.422058,298.818604 908.248108,277.695221 911.818237,256.361694 
	C914.670654,239.317184 916.901978,222.060989 917.740601,204.817612 
	C918.576660,187.626144 917.583252,170.324432 916.939148,153.087967 
	C916.230774,134.131668 912.186340,115.756622 904.899292,98.261559 
	C898.263977,82.331184 888.847229,68.275604 872.988403,60.093369 
	C860.662354,53.733845 847.459961,50.614185 833.478577,53.016987 
	C823.129028,54.795643 812.636169,56.177338 802.552917,58.980022 
	C779.820984,65.298470 759.381714,76.694565 739.338379,88.905113 
	C720.295898,100.505981 702.367065,113.578316 684.665894,128.053864 
M297.051422,294.209106 
	C299.207977,302.790283 301.364532,311.371490 303.550995,320.071594 
	C310.017700,318.692810 316.318665,317.264709 322.654968,316.015808 
	C336.327728,313.320831 349.983490,310.514709 363.712921,308.139893 
	C375.257751,306.142914 386.887939,304.626434 398.497467,303.021057 
	C406.741089,301.881134 415.008698,300.909210 423.273682,299.930450 
	C434.621704,298.586517 445.957977,297.071228 457.340851,296.135345 
	C461.037140,295.831421 463.139465,294.696686 465.230194,291.614349 
	C470.697052,283.554626 476.606628,275.787689 482.505829,268.030396 
	C492.352509,255.082260 502.148895,242.088882 512.305176,229.385361 
	C520.978943,218.536194 530.049683,207.999893 539.091309,197.450760 
	C546.983582,188.242599 555.080322,179.209579 563.572083,169.546829 
	C552.295227,159.119629 541.519226,148.391281 529.924377,138.636047 
	C516.730774,127.535660 503.299927,116.579872 489.073456,106.879250 
	C471.460815,94.869637 453.304565,83.529518 434.667816,73.189568 
	C419.609619,64.835037 403.302765,58.852257 386.351410,55.163876 
	C374.158447,52.510860 361.745697,50.958801 349.362762,53.116699 
	C328.559906,56.741894 313.103210,68.229279 302.793152,86.633034 
	C290.028168,109.418846 285.368073,134.470444 284.248383,160.008545 
	C283.192383,184.093460 283.108917,208.308731 286.972473,232.297028 
	C288.369659,240.972061 289.324158,249.719193 290.762817,258.386597 
	C292.700836,270.062531 294.911682,281.693176 297.051422,294.209106 
M892.468933,501.026031 
	C888.756531,509.430786 884.701721,517.707886 881.498840,526.302551 
	C880.201721,529.783447 876.640381,532.754211 878.833252,537.524536 
	C884.756958,550.411133 890.556030,563.374023 895.822693,576.539368 
	C904.797180,598.973022 913.500244,621.519714 921.974670,644.147278 
	C926.667358,656.677368 930.760498,669.436707 934.895691,682.166870 
	C935.732727,684.743530 936.365051,685.210388 938.944336,684.134277 
	C942.334167,682.720032 946.029907,682.051025 949.572449,680.989258 
	C979.433289,672.039124 1008.708191,661.495239 1036.810181,647.947632 
	C1047.597412,642.747192 1058.027222,636.795959 1068.550537,631.059509 
	C1085.194824,621.986206 1100.419312,610.872803 1114.342529,598.056458 
	C1123.898071,589.260681 1132.090088,579.321655 1138.652588,567.969238 
	C1149.871582,548.561584 1151.395996,528.863770 1142.070801,508.347260 
	C1134.140747,490.900604 1121.153076,477.734680 1106.950439,465.382019 
	C1089.552002,450.250000 1069.983398,438.543304 1049.661499,427.992737 
	C1020.091553,412.640839 988.998596,401.020294 957.281494,391.000946 
	C950.113708,388.736664 942.886230,386.661163 935.663696,384.492004 
	C934.636719,387.719635 933.840454,390.155457 933.085571,392.604065 
	C921.772400,429.303284 907.661133,464.960266 892.468933,501.026031 
M126.489830,626.993774 
	C146.463211,637.250854 165.880081,648.851501 186.555023,657.414734 
	C210.771439,667.444763 236.164810,674.604919 260.851593,683.551025 
	C265.855133,685.364258 266.688568,683.860107 268.059723,679.816223 
	C275.407959,658.144348 282.377686,636.311462 290.693695,615.008728 
	C300.889862,588.889648 312.315735,563.251221 323.084900,537.353027 
	C323.665924,535.955811 323.575684,533.876404 322.981171,532.456482 
	C317.811829,520.110718 312.157166,507.961731 307.217926,495.527405 
	C297.283203,470.517090 287.536011,445.428650 278.061554,420.240723 
	C273.709564,408.670990 270.183868,396.790375 266.268982,385.007172 
	C265.725403,385.007172 265.194580,384.894318 264.732178,385.024414 
	C259.453247,386.509644 254.143417,387.902069 248.920074,389.565033 
	C209.641205,402.070587 171.153229,416.482971 135.346725,437.251862 
	C110.157715,451.862335 86.871948,468.800812 69.158600,492.379395 
	C61.364471,502.754242 55.711720,514.330139 54.171200,527.191772 
	C52.201946,543.632751 56.810223,558.729797 65.989273,572.568604 
	C74.432632,585.298218 84.593674,596.456848 96.527657,605.821289 
	C105.941818,613.208374 116.121132,619.620361 126.489830,626.993774 
M558.011658,811.518066 
	C558.860291,812.700989 559.631409,813.949646 560.569641,815.056702 
	C569.985168,826.166748 579.365417,837.307861 588.894226,848.320190 
	C592.731628,852.755127 596.911865,856.893372 601.112793,861.354248 
	C625.133667,834.948181 647.693237,807.808289 669.919800,778.417480 
	C663.407166,779.049194 658.513733,779.892212 653.613464,779.933899 
	C634.641907,780.095276 615.668213,780.001770 596.695312,780.002258 
	C575.673096,780.002869 554.650818,780.002441 533.075256,780.002441 
	C541.100525,790.186951 549.301147,800.593994 558.011658,811.518066 
M877.942688,390.315643 
	C879.928955,384.029022 881.915283,377.742401 884.169617,370.607513 
	C848.845337,364.518311 813.702698,358.460388 778.958130,352.471130 
	C801.784363,391.984131 824.435974,431.194855 847.830994,471.692474 
	C857.852112,444.422394 867.669067,417.707947 877.942688,390.315643 
M834.527588,620.995239 
	C816.272888,652.570374 798.018188,684.145508 779.465393,716.236267 
	C814.453735,711.926086 849.273621,705.911560 883.941772,698.208496 
	C873.002380,663.931152 860.900757,630.704468 846.763611,597.674438 
	C842.572876,605.735596 838.768738,613.053101 834.527588,620.995239 
M318.962982,696.120667 
	C319.696289,697.071777 320.252625,698.559875 321.196899,698.871094 
	C323.786987,699.724854 326.531342,700.131226 329.230072,700.631409 
	C344.356842,703.435120 359.475311,706.286255 374.622040,708.978394 
	C386.287628,711.051758 397.975586,713.011902 409.684845,714.820251 
	C414.025726,715.490723 418.455597,715.585266 422.247711,715.893860 
	C399.592651,676.617554 377.114441,637.647949 354.534729,598.502319 
	C349.139282,612.371704 343.311432,626.653809 338.019989,641.132019 
	C331.449310,659.110657 325.322388,677.251526 318.962982,696.120667 
M587.500488,289.000000 
	C614.629333,289.383392 641.758179,289.766785 670.309143,290.170258 
	C647.116882,262.331940 624.566895,235.264511 600.980164,206.952652 
	C577.353271,235.341904 554.762329,262.486328 532.171448,289.630737 
	C532.556152,290.116974 532.940796,290.603210 533.325500,291.089447 
	C535.469604,290.726410 537.606750,290.099487 539.758911,290.042572 
	C555.337830,289.630432 570.919861,289.333435 587.500488,289.000000 
z"/>
<path fill="#000000" opacity="1.000000" stroke="none" 
	d="
M869.468628,1069.000000 
	C869.633850,1068.334106 870.166260,1067.243042 870.916260,1067.064209 
	C894.641235,1061.406494 914.416321,1049.118896 930.447632,1030.955200 
	C942.356201,1017.462708 950.734924,1001.783813 956.990112,984.933350 
	C962.921753,968.954590 966.472656,952.388672 968.870178,935.597229 
	C970.144165,926.674683 970.364624,917.598877 970.985962,908.587097 
	C971.393616,902.675110 972.223633,896.723145 971.899292,890.842285 
	C970.840515,871.649231 969.609009,852.457092 967.946289,833.307800 
	C965.232117,802.050659 958.953491,771.411804 951.076233,741.079163 
	C950.714661,739.686890 950.831482,738.170349 950.771851,737.349731 
	C976.811401,728.252319 1003.315369,719.909424 1029.094482,709.730713 
	C1055.367676,699.356934 1080.778687,686.902283 1104.774536,671.774841 
	C1120.927734,661.591553 1136.168335,650.341248 1150.298218,637.400513 
	C1170.453003,618.941833 1185.974976,597.502869 1195.522583,571.881104 
	C1197.200562,567.377808 1197.834351,562.489502 1199.038452,557.801697 
	C1199.264404,556.922363 1199.909424,556.150757 1200.680542,555.664734 
	C1201.000000,726.911438 1201.000000,897.822937 1201.000000,1069.000000 
	C1090.645874,1069.000000 980.291626,1069.000000 869.468628,1069.000000 
z"/>
<path fill="#000000" opacity="1.000000" stroke="none" 
	d="
M1.000001,556.468628 
	C1.645882,556.291992 2.800611,556.499939 2.864647,556.887939 
	C6.049731,576.187683 14.756489,593.053955 26.013031,608.687317 
	C36.003906,622.562866 47.932133,634.589844 60.998741,645.710083 
	C87.218994,668.024597 117.003105,684.408020 147.898148,698.847534 
	C175.510239,711.752686 204.118118,722.269531 233.352814,730.994019 
	C239.371857,732.790222 245.378784,734.627075 251.518295,736.483582 
	C248.049942,751.868042 244.152893,767.324219 241.166534,782.954407 
	C238.574112,796.522888 236.568802,810.241211 235.108307,823.978821 
	C233.304230,840.948303 232.268738,858.001709 231.029617,875.028198 
	C230.514908,882.100830 229.647095,889.244385 230.127197,896.274658 
	C231.582947,917.590759 232.673660,938.888123 237.725952,959.897705 
	C243.359909,983.325806 251.814316,1005.281860 266.313843,1024.515869 
	C275.944611,1037.291260 287.483063,1048.461914 302.135284,1055.407471 
	C311.820526,1059.998657 322.154877,1063.218384 332.181519,1067.096436 
	C332.748535,1067.315796 333.160187,1067.936646 333.322083,1068.685303 
	C222.390640,1069.000000 111.781273,1069.000000 1.000000,1069.000000 
	C1.000000,898.312500 1.000000,727.624878 1.000001,556.468628 
z"/>
<path fill="#000000" opacity="1.000000" stroke="none" 
	d="
M1201.000000,513.531372 
	C1200.354248,513.708618 1199.195557,513.496826 1199.136108,513.114380 
	C1196.086670,493.488800 1187.280762,476.362396 1175.802124,460.560638 
	C1165.434448,446.288208 1153.641724,433.189728 1139.273682,422.796173 
	C1124.054688,411.787048 1109.005249,400.393219 1092.921753,390.772461 
	C1077.557617,381.582001 1061.361206,373.478912 1044.805908,366.656555 
	C1020.990356,356.842285 996.554504,348.520996 972.304871,339.780365 
	C965.213318,337.224243 957.854919,335.408661 950.539795,333.230103 
	C953.524963,319.423950 956.704529,305.817963 959.361694,292.110687 
	C961.861938,279.213379 963.940308,266.229462 965.972900,253.247437 
	C969.073730,233.441528 971.159302,213.540649 971.019531,193.449448 
	C970.926697,180.103561 971.802673,166.697479 970.826599,153.422638 
	C968.954773,127.964737 964.753052,102.801987 954.856018,79.076157 
	C948.476135,63.781971 940.233459,49.557392 928.839844,37.120480 
	C914.761536,21.752882 897.973816,11.121667 878.321716,4.689478 
	C875.313660,3.704971 872.329468,2.647500 869.667114,1.311874 
	C980.276123,1.000000 1090.552246,1.000000 1201.000000,1.000000 
	C1201.000000,171.687515 1201.000000,342.375092 1201.000000,513.531372 
z"/>
<path fill="#000000" opacity="1.000000" stroke="none" 
	d="
M331.531342,1.000001 
	C331.544342,1.660395 331.197052,2.777391 330.617279,2.915013 
	C311.586487,7.432487 295.047516,16.345139 280.638489,29.686113 
	C270.239014,39.314732 261.926208,50.329849 255.044144,62.598640 
	C244.825409,80.815720 238.880112,100.568481 235.241211,120.909561 
	C232.856018,134.242462 232.317963,147.908340 231.017181,161.431290 
	C230.576477,166.012634 229.834229,170.640610 230.086166,175.199951 
	C231.220779,195.734329 232.271042,216.287201 234.126816,236.763168 
	C235.448715,251.348480 237.524948,265.908813 240.136719,280.322235 
	C243.020035,296.234100 246.892929,311.966827 250.353088,327.773621 
	C250.719528,329.447510 251.208710,331.094574 251.716904,333.045624 
	C242.001205,336.038574 232.178574,338.560730 222.724670,342.074921 
	C198.264587,351.167114 173.737579,360.147675 149.670120,370.208221 
	C126.211006,380.014465 104.071495,392.524536 83.100182,406.978607 
	C66.979294,418.089630 51.457165,430.131470 38.803692,445.050446 
	C29.428328,456.104401 21.259733,468.366211 13.889626,480.877045 
	C8.204790,490.527130 4.319845,501.303497 2.924971,512.695679 
	C2.839307,513.395264 2.083849,514.012939 1.320019,514.334351 
	C1.000000,343.088623 1.000000,172.177246 1.000000,1.000000 
	C111.020752,1.000000 221.041718,1.000000 331.531342,1.000001 
z"/>
<path fill="#000000" opacity="1.000000" stroke="none" 
	d="
M392.468658,1069.000000 
	C392.624664,1068.335327 393.166534,1067.201416 393.886078,1067.074463 
	C411.316925,1063.998291 427.824097,1058.150269 443.986420,1051.052734 
	C465.984253,1041.392578 486.929443,1029.855591 506.530884,1016.016174 
	C520.973572,1005.819153 535.365356,995.464844 549.007019,984.241272 
	C564.474487,971.515625 579.065491,957.725891 594.076660,944.443054 
	C596.257629,942.513245 598.656860,940.830200 601.184814,938.853455 
	C608.850220,945.795532 616.356750,952.935181 624.228210,959.646851 
	C637.922791,971.323608 651.380066,983.356262 665.784851,994.103027 
	C683.802429,1007.544861 702.232422,1020.552429 721.310242,1032.419800 
	C739.009705,1043.429688 758.020020,1052.292236 777.892761,1058.839355 
	C788.119934,1062.208740 798.750793,1064.350586 809.184204,1067.103760 
	C809.749878,1067.253052 810.177368,1067.925781 810.334595,1068.677490 
	C670.979126,1069.000000 531.958191,1069.000000 392.468658,1069.000000 
z"/>
<path fill="#000000" opacity="1.000000" stroke="none" 
	d="
M807.531372,0.999995 
	C807.542847,1.659078 807.178589,2.799677 806.615356,2.908286 
	C776.404785,8.733552 749.093994,21.579523 722.546448,36.660503 
	C701.354248,48.699261 681.571106,62.728477 662.291687,77.469162 
	C650.338379,86.608398 639.185608,96.809074 627.839111,106.722900 
	C618.786072,114.632927 609.983337,122.829567 600.972839,130.986511 
	C596.028381,126.537331 591.149597,121.900986 586.013916,117.569199 
	C565.286621,100.086449 545.025574,81.988693 523.552856,65.469170 
	C501.117676,48.209217 476.845642,33.535934 451.075500,21.617788 
	C433.197998,13.349833 414.851929,6.313489 395.305115,2.930635 
	C394.593994,2.807565 393.986877,2.083794 393.665649,1.319988 
	C531.687561,1.000000 669.375122,1.000000 807.531372,0.999995 
z"/>
<path fill="#000000" opacity="1.000000" stroke="none" 
	d="
M709.365051,722.859619 
	C702.812500,723.650024 696.665100,724.588745 690.484436,724.937744 
	C680.574585,725.497192 670.644836,725.846191 660.719604,725.967346 
	C626.471985,726.385559 592.222534,726.909119 557.974060,726.888794 
	C542.795166,726.879822 527.611694,725.764282 512.441101,724.948669 
	C506.423859,724.625244 500.405701,723.945007 494.454895,723.003967 
	C492.838715,722.748413 490.988831,721.260559 490.053497,719.815796 
	C475.361969,697.122314 460.386230,674.596558 446.344666,651.503845 
	C435.098846,633.008972 424.786224,613.930420 414.498627,594.873840 
	C404.502472,576.357178 394.967773,557.587830 385.521729,538.783081 
	C384.490234,536.729675 384.496979,533.270691 385.520477,531.206543 
	C395.075531,511.936279 404.372681,492.500122 414.885651,473.751892 
	C429.978546,446.835999 445.825775,420.334808 461.744904,393.893768 
	C470.829346,378.804932 480.721802,364.203430 490.185822,349.341339 
	C491.821472,346.772705 493.797272,345.970673 496.929871,345.882996 
	C511.278625,345.481506 525.616638,344.683380 539.956665,343.989197 
	C545.716248,343.710388 551.467346,343.150757 557.228699,343.032928 
	C577.645874,342.615356 598.065186,342.131744 618.484863,342.070953 
	C632.071838,342.030518 645.666382,342.523010 659.247314,343.043701 
	C671.268616,343.504578 683.277466,344.307556 695.288452,345.015381 
	C699.383484,345.256683 703.482239,345.559845 707.548401,346.077637 
	C708.555115,346.205841 709.759888,347.073303 710.335815,347.953003 
	C722.723206,366.876099 735.345947,385.655731 747.270264,404.868317 
	C758.766113,423.390381 769.785461,442.222382 780.521790,461.196777 
	C788.410706,475.138855 795.574524,489.494659 802.928528,503.734741 
	C807.591980,512.764893 812.166077,521.849731 816.421204,531.075684 
	C817.367554,533.127502 817.734009,536.335510 816.794006,538.230652 
	C807.794312,556.374329 799.010803,574.661987 789.088135,592.302490 
	C773.566833,619.896179 757.403015,647.135559 741.131287,674.297363 
	C731.749695,689.957642 721.628845,705.175293 711.807556,720.570984 
	C711.281433,721.395874 710.446472,722.023743 709.365051,722.859619 
M579.453979,640.007568 
	C592.971130,643.204773 606.769775,643.198181 620.164307,640.727112 
	C643.518066,636.418945 663.525391,625.415955 679.885559,607.759033 
	C695.925354,590.447754 705.452759,570.081177 707.720276,546.937317 
	C709.395813,529.835693 707.751831,512.809265 701.249329,496.233429 
	C691.134521,470.449799 673.935120,451.584778 649.624084,438.995178 
	C628.747375,428.184082 606.613098,425.343445 583.396729,428.919281 
	C561.151001,432.345642 542.255920,442.253204 526.094482,457.511383 
	C515.580811,467.437469 507.849060,479.404602 501.989655,492.672668 
	C493.073792,512.861694 491.608002,534.092896 495.420349,555.211365 
	C499.495117,577.783569 510.377899,597.315796 527.549866,613.220764 
	C542.242676,626.829529 559.169128,635.646423 579.453979,640.007568 
z"/>
<path fill="#000000" opacity="1.000000" stroke="none" 
	d="
M440.113525,771.999756 
	C447.585083,772.672119 454.599609,773.299805 461.597595,774.076355 
	C462.412109,774.166687 463.352142,774.923645 463.868500,775.636353 
	C472.999908,788.239014 481.810913,801.083557 491.235474,813.461365 
	C500.717743,825.914978 510.573792,838.102478 520.672180,850.063721 
	C533.786743,865.597534 547.314636,880.782104 560.621460,896.154297 
	C561.651917,897.344788 562.341919,898.830078 563.518921,900.700989 
	C552.403870,910.568970 541.398315,920.247925 530.494629,930.040344 
	C511.792206,946.836670 491.805237,961.957520 470.772827,975.682556 
	C448.243195,990.384460 424.731842,1003.094543 398.856323,1011.115051 
	C383.804626,1015.780334 368.488098,1018.196106 352.854126,1016.856262 
	C340.572968,1015.803711 329.339386,1011.284424 319.699249,1003.230042 
	C302.968414,989.251038 294.881256,970.374512 290.156982,949.908630 
	C287.604736,938.852051 285.866882,927.471680 285.182129,916.151428 
	C284.140900,898.936829 283.435486,881.604370 284.263977,864.402710 
	C285.038666,848.318542 287.469788,832.251709 290.123596,816.335876 
	C293.612732,795.410339 298.023529,774.638245 302.080750,753.808472 
	C302.293304,752.717163 302.904297,751.703491 303.689178,749.766907 
	C307.784698,750.590820 312.308655,751.549255 316.851746,752.406006 
	C332.149750,755.290894 347.441040,758.214783 362.761169,760.978027 
	C374.428284,763.082336 386.109802,765.136414 397.833160,766.890137 
	C406.554291,768.194702 415.355347,768.960510 424.115662,770.009094 
	C429.299438,770.629578 434.473236,771.333252 440.113525,771.999756 
z"/>
<path fill="#000000" opacity="1.000000" stroke="none" 
	d="
M899.226990,982.309875 
	C889.569702,1000.734375 874.873596,1012.223572 854.823486,1015.880432 
	C832.963135,1019.867554 812.056763,1014.822815 791.643372,1007.226990 
	C766.316772,997.802917 743.130676,984.331787 721.114624,968.898865 
	C708.357117,959.955994 696.073120,950.279541 684.058105,940.349976 
	C668.632141,927.601685 653.690247,914.267578 638.146423,900.846191 
	C639.878784,898.488770 640.982239,896.757446 642.308533,895.217957 
	C655.049438,880.429443 668.121887,865.915222 680.518250,850.844360 
	C694.688904,833.616394 708.365723,815.977783 722.056458,798.361633 
	C727.620117,791.202759 732.612366,783.601685 737.979980,776.286499 
	C738.722778,775.274292 740.071716,774.213806 741.241882,774.082458 
	C757.167480,772.294128 773.167297,771.074219 789.035645,768.891174 
	C807.369934,766.368713 825.628784,763.237122 843.852783,759.990662 
	C861.077393,756.922302 878.212646,753.353455 895.394470,750.042175 
	C896.346680,749.858643 897.365173,750.018494 898.748352,750.018494 
	C901.509033,762.020813 904.508545,773.896484 906.926697,785.889404 
	C909.554626,798.923096 912.012878,812.013916 913.851746,825.176758 
	C915.413391,836.355774 916.414246,847.654236 916.899841,858.932739 
	C917.620361,875.669067 918.557129,892.475403 917.789124,909.177734 
	C916.667053,933.578064 912.427917,957.507507 901.041199,979.592773 
	C900.602661,980.443542 899.981262,981.200073 899.226990,982.309875 
z"/>
<path fill="#000000" opacity="1.000000" stroke="none" 
	d="
M685.026855,128.023956 
	C702.367065,113.578316 720.295898,100.505981 739.338379,88.905113 
	C759.381714,76.694565 779.820984,65.298470 802.552917,58.980022 
	C812.636169,56.177338 823.129028,54.795643 833.478577,53.016987 
	C847.459961,50.614185 860.662354,53.733845 872.988403,60.093369 
	C888.847229,68.275604 898.263977,82.331184 904.899292,98.261559 
	C912.186340,115.756622 916.230774,134.131668 916.939148,153.087967 
	C917.583252,170.324432 918.576660,187.626144 917.740601,204.817612 
	C916.901978,222.060989 914.670654,239.317184 911.818237,256.361694 
	C908.248108,277.695221 903.422058,298.818604 899.103149,320.205566 
	C884.300537,317.040192 870.310059,313.677795 856.173218,311.125641 
	C840.830566,308.355804 825.360840,306.278320 809.929626,304.013702 
	C795.755615,301.933563 781.578064,299.854950 767.365051,298.070618 
	C759.402893,297.070984 751.335022,296.901459 743.381531,295.851990 
	C741.142944,295.556610 738.516663,293.948853 737.127197,292.132782 
	C724.299500,275.366608 711.992981,258.195984 698.960938,241.593399 
	C685.667297,224.657593 671.826660,208.146179 658.024475,191.616760 
	C651.920837,184.307053 645.321960,177.410904 638.063049,169.343643 
	C653.682373,155.505005 669.174133,141.779434 685.026855,128.023956 
z"/>
<path fill="#000000" opacity="1.000000" stroke="none" 
	d="
M297.028442,293.776184 
	C294.911682,281.693176 292.700836,270.062531 290.762817,258.386597 
	C289.324158,249.719193 288.369659,240.972061 286.972473,232.297028 
	C283.108917,208.308731 283.192383,184.093460 284.248383,160.008545 
	C285.368073,134.470444 290.028168,109.418846 302.793152,86.633034 
	C313.103210,68.229279 328.559906,56.741894 349.362762,53.116699 
	C361.745697,50.958801 374.158447,52.510860 386.351410,55.163876 
	C403.302765,58.852257 419.609619,64.835037 434.667816,73.189568 
	C453.304565,83.529518 471.460815,94.869637 489.073456,106.879250 
	C503.299927,116.579872 516.730774,127.535660 529.924377,138.636047 
	C541.519226,148.391281 552.295227,159.119629 563.572083,169.546829 
	C555.080322,179.209579 546.983582,188.242599 539.091309,197.450760 
	C530.049683,207.999893 520.978943,218.536194 512.305176,229.385361 
	C502.148895,242.088882 492.352509,255.082260 482.505829,268.030396 
	C476.606628,275.787689 470.697052,283.554626 465.230194,291.614349 
	C463.139465,294.696686 461.037140,295.831421 457.340851,296.135345 
	C445.957977,297.071228 434.621704,298.586517 423.273682,299.930450 
	C415.008698,300.909210 406.741089,301.881134 398.497467,303.021057 
	C386.887939,304.626434 375.257751,306.142914 363.712921,308.139893 
	C349.983490,310.514709 336.327728,313.320831 322.654968,316.015808 
	C316.318665,317.264709 310.017700,318.692810 303.550995,320.071594 
	C301.364532,311.371490 299.207977,302.790283 297.028442,293.776184 
z"/>
<path fill="#000000" opacity="1.000000" stroke="none" 
	d="
M892.707397,500.709229 
	C907.661133,464.960266 921.772400,429.303284 933.085571,392.604065 
	C933.840454,390.155457 934.636719,387.719635 935.663696,384.492004 
	C942.886230,386.661163 950.113708,388.736664 957.281494,391.000946 
	C988.998596,401.020294 1020.091553,412.640839 1049.661499,427.992737 
	C1069.983398,438.543304 1089.552002,450.250000 1106.950439,465.382019 
	C1121.153076,477.734680 1134.140747,490.900604 1142.070801,508.347260 
	C1151.395996,528.863770 1149.871582,548.561584 1138.652588,567.969238 
	C1132.090088,579.321655 1123.898071,589.260681 1114.342529,598.056458 
	C1100.419312,610.872803 1085.194824,621.986206 1068.550537,631.059509 
	C1058.027222,636.795959 1047.597412,642.747192 1036.810181,647.947632 
	C1008.708191,661.495239 979.433289,672.039124 949.572449,680.989258 
	C946.029907,682.051025 942.334167,682.720032 938.944336,684.134277 
	C936.365051,685.210388 935.732727,684.743530 934.895691,682.166870 
	C930.760498,669.436707 926.667358,656.677368 921.974670,644.147278 
	C913.500244,621.519714 904.797180,598.973022 895.822693,576.539368 
	C890.556030,563.374023 884.756958,550.411133 878.833252,537.524536 
	C876.640381,532.754211 880.201721,529.783447 881.498840,526.302551 
	C884.701721,517.707886 888.756531,509.430786 892.707397,500.709229 
z"/>
<path fill="#000000" opacity="1.000000" stroke="none" 
	d="
M126.225227,626.729614 
	C116.121132,619.620361 105.941818,613.208374 96.527657,605.821289 
	C84.593674,596.456848 74.432632,585.298218 65.989273,572.568604 
	C56.810223,558.729797 52.201946,543.632751 54.171200,527.191772 
	C55.711720,514.330139 61.364471,502.754242 69.158600,492.379395 
	C86.871948,468.800812 110.157715,451.862335 135.346725,437.251862 
	C171.153229,416.482971 209.641205,402.070587 248.920074,389.565033 
	C254.143417,387.902069 259.453247,386.509644 264.732178,385.024414 
	C265.194580,384.894318 265.725403,385.007172 266.268982,385.007172 
	C270.183868,396.790375 273.709564,408.670990 278.061554,420.240723 
	C287.536011,445.428650 297.283203,470.517090 307.217926,495.527405 
	C312.157166,507.961731 317.811829,520.110718 322.981171,532.456482 
	C323.575684,533.876404 323.665924,535.955811 323.084900,537.353027 
	C312.315735,563.251221 300.889862,588.889648 290.693695,615.008728 
	C282.377686,636.311462 275.407959,658.144348 268.059723,679.816223 
	C266.688568,683.860107 265.855133,685.364258 260.851593,683.551025 
	C236.164810,674.604919 210.771439,667.444763 186.555023,657.414734 
	C165.880081,648.851501 146.463211,637.250854 126.225227,626.729614 
z"/>
<path fill="#000000" opacity="1.000000" stroke="none" 
	d="
M557.756714,811.259521 
	C549.301147,800.593994 541.100525,790.186951 533.075256,780.002441 
	C554.650818,780.002441 575.673096,780.002869 596.695312,780.002258 
	C615.668213,780.001770 634.641907,780.095276 653.613464,779.933899 
	C658.513733,779.892212 663.407166,779.049194 669.919800,778.417480 
	C647.693237,807.808289 625.133667,834.948181 601.112793,861.354248 
	C596.911865,856.893372 592.731628,852.755127 588.894226,848.320190 
	C579.365417,837.307861 569.985168,826.166748 560.569641,815.056702 
	C559.631409,813.949646 558.860291,812.700989 557.756714,811.259521 
z"/>
<path fill="#000000" opacity="1.000000" stroke="none" 
	d="
M877.714355,390.654541 
	C867.669067,417.707947 857.852112,444.422394 847.830994,471.692474 
	C824.435974,431.194855 801.784363,391.984131 778.958130,352.471130 
	C813.702698,358.460388 848.845337,364.518311 884.169617,370.607513 
	C881.915283,377.742401 879.928955,384.029022 877.714355,390.654541 
z"/>
<path fill="#000000" opacity="1.000000" stroke="none" 
	d="
M834.746094,620.682922 
	C838.768738,613.053101 842.572876,605.735596 846.763611,597.674438 
	C860.900757,630.704468 873.002380,663.931152 883.941772,698.208496 
	C849.273621,705.911560 814.453735,711.926086 779.465393,716.236267 
	C798.018188,684.145508 816.272888,652.570374 834.746094,620.682922 
z"/>
<path fill="#000000" opacity="1.000000" stroke="none" 
	d="
M318.983398,695.721497 
	C325.322388,677.251526 331.449310,659.110657 338.019989,641.132019 
	C343.311432,626.653809 349.139282,612.371704 354.534729,598.502319 
	C377.114441,637.647949 399.592651,676.617554 422.247711,715.893860 
	C418.455597,715.585266 414.025726,715.490723 409.684845,714.820251 
	C397.975586,713.011902 386.287628,711.051758 374.622040,708.978394 
	C359.475311,706.286255 344.356842,703.435120 329.230072,700.631409 
	C326.531342,700.131226 323.786987,699.724854 321.196899,698.871094 
	C320.252625,698.559875 319.696289,697.071777 318.983398,695.721497 
z"/>
<path fill="#000000" opacity="1.000000" stroke="none" 
	d="
M422.710449,354.656799 
	C411.816864,372.595123 400.720734,390.414520 390.095947,408.510651 
	C382.084717,422.155396 374.647034,436.137970 367.013123,450.002716 
	C363.201569,456.925232 359.522430,463.920624 355.263672,471.850891 
	C340.843048,438.597595 328.933655,405.345978 317.904968,371.037567 
	C338.179749,367.340240 358.312683,363.449921 378.529053,360.056946 
	C392.644501,357.687866 406.874237,355.999756 421.686798,354.155792 
	C422.450592,354.421692 422.580536,354.539246 422.710449,354.656799 
z"/>
<path fill="#000000" opacity="1.000000" stroke="none" 
	d="
M587.000671,289.000000 
	C570.919861,289.333435 555.337830,289.630432 539.758911,290.042572 
	C537.606750,290.099487 535.469604,290.726410 533.325500,291.089447 
	C532.940796,290.603210 532.556152,290.116974 532.171448,289.630737 
	C554.762329,262.486328 577.353271,235.341904 600.980164,206.952652 
	C624.566895,235.264511 647.116882,262.331940 670.309143,290.170258 
	C641.758179,289.766785 614.629333,289.383392 587.000671,289.000000 
z"/>
<path fill="#000000" opacity="1.000000" stroke="none" 
	d="
M422.132324,354.120850 
	C422.507141,353.707214 423.070343,353.476898 423.633514,353.246582 
	C423.473572,353.587097 423.313660,353.927582 422.932068,354.462463 
	C422.580536,354.539246 422.450592,354.421692 422.132324,354.120850 
z"/>
<path fill="#61DAFB" opacity="1.000000" stroke="none" 
	d="
M579.016174,640.003906 
	C559.169128,635.646423 542.242676,626.829529 527.549866,613.220764 
	C510.377899,597.315796 499.495117,577.783569 495.420349,555.211365 
	C491.608002,534.092896 493.073792,512.861694 501.989655,492.672668 
	C507.849060,479.404602 515.580811,467.437469 526.094482,457.511383 
	C542.255920,442.253204 561.151001,432.345642 583.396729,428.919281 
	C606.613098,425.343445 628.747375,428.184082 649.624084,438.995178 
	C673.935120,451.584778 691.134521,470.449799 701.249329,496.233429 
	C707.751831,512.809265 709.395813,529.835693 707.720276,546.937317 
	C705.452759,570.081177 695.925354,590.447754 679.885559,607.759033 
	C663.525391,625.415955 643.518066,636.418945 620.164307,640.727112 
	C606.769775,643.198181 592.971130,643.204773 579.016174,640.003906 
z"/>
</svg>